<?xml version="1.0" encoding="UTF-8" standalone="no"?>
<svg
   xmlns:dc="http://purl.org/dc/elements/1.1/"
   xmlns:cc="http://creativecommons.org/ns#"
   xmlns:rdf="http://www.w3.org/1999/02/22-rdf-syntax-ns#"
   xmlns:svg="http://www.w3.org/2000/svg"
   xmlns="http://www.w3.org/2000/svg"
   xmlns:sodipodi="http://sodipodi.sourceforge.net/DTD/sodipodi-0.dtd"
   xmlns:inkscape="http://www.inkscape.org/namespaces/inkscape"
   width="204.04959mm"
   height="159.17355mm"
   viewBox="0 0 204.04959 159.17356"
   version="1.1"
   id="svg8"
   inkscape:version="1.0.2-2 (e86c870879, 2021-01-15)"
   sodipodi:docname="layers-dark.svg">
  <defs
     id="defs2">
    <rect
       x="4.46281"
       y="23.057852"
       width="16.363636"
       height="132.39668"
       id="rect1703" />
    <rect
       x="170.32761"
       y="6.9051733"
       width="10.16595"
       height="9.590519"
       id="rect1545" />
    <rect
       x="29.346987"
       y="12.084054"
       width="40.85561"
       height="10.16595"
       id="rect1364" />
    <rect
       x="25.227257"
       y="8.6803465"
       width="47.202576"
       height="17.575125"
       id="rect1354" />
    <inkscape:path-effect
       effect="powerstroke"
       id="path-effect1106"
       is_visible="true"
       lpeversion="1"
       offset_points="1.9450926,1.9073027"
       sort_points="true"
       interpolator_type="CentripetalCatmullRom"
       interpolator_beta="0.75"
       start_linecap_type="round"
       linejoin_type="spiro"
       miter_limit="4"
       scale_width="1"
       end_linecap_type="round" />
    <inkscape:path-effect
       effect="simplify"
       id="path-effect1104"
       is_visible="true"
       lpeversion="1"
       steps="1"
       threshold="0.0040133779"
       smooth_angles="0"
       helper_size="0"
       simplify_individual_paths="false"
       simplify_just_coalesce="false"
       step="1" />
    <inkscape:path-effect
       effect="skeletal"
       id="path-effect1077"
       is_visible="true"
       lpeversion="1"
       pattern="M 0,5 C 0,2.24 2.24,0 5,0 7.76,0 10,2.24 10,5 10,7.76 7.76,10 5,10 2.24,10 0,7.76 0,5 Z"
       copytype="single_stretched"
       prop_scale="1"
       scale_y_rel="false"
       spacing="0"
       normal_offset="0"
       tang_offset="0"
       prop_units="false"
       vertical_pattern="false"
       hide_knot="false"
       fuse_tolerance="0" />
    <inkscape:path-effect
       effect="powerstroke"
       id="path-effect1073"
       is_visible="true"
       lpeversion="1"
       offset_points="0,0.1322915"
       sort_points="true"
       interpolator_type="CubicBezierJohan"
       interpolator_beta="0.2"
       start_linecap_type="zerowidth"
       linejoin_type="extrp_arc"
       miter_limit="4"
       scale_width="1"
       end_linecap_type="zerowidth" />
    <rect
       x="29.346987"
       y="12.084054"
       width="40.85561"
       height="10.16595"
       id="rect1364-9" />
    <rect
       x="29.346987"
       y="12.084054"
       width="40.85561"
       height="10.16595"
       id="rect1377" />
    <rect
       x="29.346987"
       y="12.084054"
       width="40.85561"
       height="10.16595"
       id="rect1364-9-8" />
    <rect
       x="29.346987"
       y="12.084054"
       width="40.85561"
       height="10.16595"
       id="rect1413" />
    <rect
       x="29.346987"
       y="12.084054"
       width="40.85561"
       height="10.16595"
       id="rect1364-9-8-8" />
    <rect
       x="29.346987"
       y="12.084054"
       width="40.85561"
       height="10.16595"
       id="rect1450" />
    <rect
       x="29.346987"
       y="12.084054"
       width="40.85561"
       height="10.16595"
       id="rect1364-9-8-8-8" />
    <rect
       x="29.346987"
       y="12.084054"
       width="40.85561"
       height="10.16595"
       id="rect1515" />
    <rect
       x="29.346987"
       y="12.084054"
       width="40.85561"
       height="10.16595"
       id="rect1364-1" />
    <rect
       x="29.346987"
       y="12.084054"
       width="40.85561"
       height="10.16595"
       id="rect1558" />
  </defs>
  <sodipodi:namedview
     id="base"
     pagecolor="#ffffff"
     bordercolor="#666666"
     borderopacity="1.0"
     inkscape:pageopacity="0.0"
     inkscape:pageshadow="2"
     inkscape:zoom="1.0671528"
     inkscape:cx="391.71866"
     inkscape:cy="311.49143"
     inkscape:document-units="mm"
     inkscape:current-layer="layer1"
     inkscape:document-rotation="0"
     showgrid="false"
     inkscape:window-width="1431"
     inkscape:window-height="991"
     inkscape:window-x="253"
     inkscape:window-y="366"
     inkscape:window-maximized="0" />
  <metadata
     id="metadata5">
    <rdf:RDF>
      <cc:Work
         rdf:about="">
        <dc:format>image/svg+xml</dc:format>
        <dc:type
           rdf:resource="http://purl.org/dc/dcmitype/StillImage" />
        <dc:title />
      </cc:Work>
    </rdf:RDF>
  </metadata>
  <g
     inkscape:label="Layer 1"
     inkscape:groupmode="layer"
     id="layer1"
     transform="translate(4.3784237,-4.5481987)">
    <path
       style="fill:#ffffff;stroke-width:0.264583"
       id="path1013"
       d="m 26.935713,28.160532 c -0.376915,1.329341 -0.371007,2.726032 -0.37269,4.096692 -0.0021,1.65466 0.01286,3.309964 0.07685,4.963388 0.11561,2.98768 0.33142,5.97078 0.461833,8.957849 0.163528,3.745577 0.279974,7.493059 0.419962,11.239588 0.330105,10.981981 0.48318,21.968645 0.937578,32.946839 0.191185,4.619072 0.543025,10.829542 0.800923,15.555142 0,0 1.27853,-0.66355 1.27853,-0.66355 v 0 C 29.921255,98.820437 29.676957,96.747173 29.241154,89.962103 28.539249,79.034142 28.188494,68.084022 28.07427,57.135021 28.03027,48.301666 27.908586,44.8883 28.226594,36.417194 c 0.09583,-2.552684 0.260884,-5.252789 0.681347,-7.803285 0.12075,-0.732451 0.232066,-0.987348 0.44881,-1.590386 0,0 -2.421038,1.137009 -2.421038,1.137009 z" />
    <path
       style="fill:#ffffff;stroke-width:0.264583"
       id="path1019"
       d="m 28.442983,28.996023 c 5.053325,-0.16751 10.107356,-0.311462 15.161697,-0.445897 9.125127,-0.09632 18.238781,-0.55808 27.340078,-1.197726 0,0 1.485074,-1.096929 1.485074,-1.096929 v 0 c -1.579086,0.137711 -3.156683,0.293709 -4.737259,0.413132 -7.525599,0.568608 -15.073979,0.808924 -22.620234,0.811834 -4.822396,0.01482 -9.64769,0.04679 -14.468721,-0.05421 0,0 -2.160635,1.569794 -2.160635,1.569794 z" />
    <path
       style="fill:#ffffff;stroke-width:0.264583"
       id="path1120"
       d="m 69.382695,31.832272 c 1.014002,6.62456 0.813853,13.369567 0.83481,20.049561 -0.004,2.365867 -0.0019,4.731753 -0.01212,7.097599 -0.01069,2.468742 -0.04968,4.937357 -0.0507,7.406121 -0.0037,8.796004 0.08454,6.149864 0.101547,14.792452 0.01161,5.898893 -0.02765,6.384197 -0.143103,11.984421 -0.10899,3.427518 -0.288216,6.852644 -0.545827,10.272164 -0.100338,1.33185 -0.23544,2.65956 -0.315384,3.99276 0,0 2.275838,-1.1523 2.275838,-1.1523 v 0 c -0.0136,-1.286 0.0345,-2.5704 0.05433,-3.85637 0.05154,-3.343367 0.07216,-6.687245 0.05353,-10.031002 -0.06637,-6.352037 -0.205161,-12.703632 -0.26134,-19.055633 -0.05638,-6.374145 -0.02817,-8.634735 0.07619,-14.985322 0.03924,-2.388015 0.09452,-4.77574 0.141777,-7.163612 0.0904,-3.922202 0.196157,-7.844068 0.274773,-11.766524 0.0274,-1.366911 0.06754,-2.733907 0.06244,-4.101084 -0.0059,-1.57208 -0.129304,-3.145663 -0.191611,-4.71625 0,0 -2.355138,1.233019 -2.355138,1.233019 z" />
    <path
       style="fill:#ffffff;stroke-width:0.264583"
       id="path1146"
       d="m 26.65671,53.653599 c 2.35322,-0.355838 4.737531,-0.425735 7.112605,-0.500877 3.212442,-0.07543 6.424684,-0.07341 9.63667,-0.169669 3.170976,-0.159528 6.34201,0.03547 9.508517,0.192767 2.349516,0.138851 4.702863,0.148804 7.054151,0.244094 1.906969,0.09741 3.815485,0.161962 5.724036,0.21903 0.894688,0.02066 1.78884,0.08534 2.675543,-0.05649 0.55521,-0.118507 0.270309,-0.05882 0.854773,-0.178728 0,0 2.096545,-1.585177 2.096545,-1.585177 v 0 c -0.582615,0.10537 -0.29996,0.04608 -0.848428,0.175656 -0.884404,0.191628 -1.782212,0.123003 -2.682582,0.127913 -1.937117,-0.01421 -3.873555,-0.06419 -5.808868,-0.150458 -2.35648,-0.102161 -4.713592,-0.158337 -7.071143,-0.231148 -3.184737,-0.124105 -6.372233,-0.324667 -9.560013,-0.177225 -3.203114,0.08561 -6.406496,0.105997 -9.610383,0.150026 -2.318652,0.06477 -4.642795,0.119901 -6.951207,0.359913 0,0 -2.130216,1.580369 -2.130216,1.580369 z" />
    <path
       style="fill:#ffffff;stroke-width:0.264583"
       id="path1150"
       d="m 28.50257,74.788108 c 1.85026,-0.06234 3.702344,-0.05456 5.553466,-0.05861 2.783803,-0.04045 5.566807,0.04423 8.349692,0.101619 2.904858,0.06262 5.810443,0.05935 8.715777,0.0731 2.563535,0.01085 5.127096,0.01135 7.690641,0.0218 1.682599,0.03946 3.355737,0.224843 5.036458,0.307491 1.320546,0.04207 2.642401,0.121391 3.963942,0.08964 0.598448,-0.02708 1.1942,-0.09146 1.791925,-0.129329 0,0 1.512274,-1.113226 1.512274,-1.113226 v 0 c -0.611881,0.03775 -1.219983,0.115025 -1.831025,0.163346 -1.333193,0.07274 -2.671252,-0.0085 -4.004697,-0.0403 -1.695944,-0.08537 -3.386418,-0.27269 -5.085476,-0.282754 -2.580008,0.01135 -5.16001,0.01373 -7.740037,0.01466 -2.903174,-0.0013 -5.806352,-0.02416 -8.709117,-0.07435 -2.772249,-0.05427 -5.543923,-0.144844 -8.317034,-0.129458 -1.797312,-0.0039 -3.595775,0.0056 -5.392137,-0.05861 0,0 -1.534652,1.114989 -1.534652,1.114989 z" />
    <path
       style="fill:#ffffff;stroke-width:0.264583"
       id="path1156"
       d="m 28.719036,104.51747 c 1.650773,-0.15797 3.31017,-0.17983 4.966227,-0.24321 3.463245,-0.19884 6.920092,-0.5696 10.392626,-0.57481 0.823548,-0.001 1.646725,0.0349 2.47009,0.0524 4.775117,0.2124 9.510143,0.89896 14.261115,1.38747 2.10039,0.20262 4.2017,0.4075 6.310154,0.50406 0.145476,0.005 0.290952,0.0102 0.436425,0.0153 0,0 1.487477,-1.07644 1.487477,-1.07644 v 0 c -0.150673,-5.3e-4 -0.301345,-0.001 -0.452015,-0.002 -2.178288,-0.0323 -4.353911,-0.1585 -6.525,-0.33651 -2.080205,-0.18443 -2.149949,-0.18168 -4.296886,-0.41066 -3.340881,-0.35631 -6.6753,-0.80562 -10.035958,-0.93862 -0.821603,-0.0214 -1.642936,-0.0602 -2.464808,-0.0642 -3.41734,-0.0169 -6.823028,0.31951 -10.234708,0.45755 -1.5944,0.0362 -3.1911,0.0246 -4.783513,0.11677 0,0 -1.531226,1.1125 -1.531226,1.1125 z" />
    <path
       style="fill:#ffffff;stroke-width:0.264583"
       id="path1166"
       d="m 30.794526,119.2457 c 2.745584,-0.43698 5.536745,-0.44302 8.309639,-0.43477 4.114768,0.1265 8.224943,0.3355 12.341915,0.38428 3.764045,0.0682 7.526975,-0.0238 11.288228,-0.15944 1.255374,-0.0482 2.510634,-0.10253 3.766688,-0.12997 0.689769,-0.0209 1.379905,-0.019 2.069888,-0.0148 0.09467,7.9e-4 0.189331,10e-4 0.283993,0.002 0,0 1.509221,-1.09613 1.509221,-1.09613 v 0 c -0.09618,2.6e-4 -0.192352,7.9e-4 -0.288528,0.001 -0.691055,0.003 -1.382155,-8e-4 -2.073148,0.009 -1.308905,0.0596 -2.615055,0.16745 -3.923155,0.24142 -3.796974,0.23135 -7.597309,0.32923 -11.401589,0.25419 -1.377862,-0.0183 -2.884254,-0.0315 -4.262318,-0.0763 -2.675149,-0.0871 -5.345014,-0.29373 -8.021198,-0.35151 -2.704277,-0.0252 -5.413264,-0.01 -8.107855,0.24885 0,0 -1.491781,1.12195 -1.491781,1.12195 z" />
    <path
       style="fill:#ffffff;stroke-width:0.264583"
       id="path1172"
       d="m 28.474016,119.47567 c -0.06652,1.16191 0.06152,2.31945 0.155395,3.47552 0.108752,1.33926 0.146868,1.93208 0.243483,3.29865 0.133739,2.74072 0.186976,5.48674 0.09871,8.22953 0,0 1.501172,-0.76235 1.501172,-0.76235 v 0 c -0.01537,-2.7341 -0.07899,-5.46833 -0.182552,-8.20049 -0.123333,-2.28159 -0.406812,-4.59448 -0.116149,-6.87201 0,0 -1.700054,0.83115 -1.700054,0.83115 z" />
    <path
       style="fill:#ffffff;stroke-width:0.264583"
       id="path1176"
       d="m 29.102658,136.5498 c 1.808821,-0.0615 3.617579,0.0685 5.425141,0.12787 3.743494,0.14309 7.487018,0.0525 11.229962,-0.0441 3.825449,-0.14143 7.653197,-0.10523 11.479829,-0.05 3.091362,0.0578 6.183381,0.0576 9.275056,0.0877 1.395012,0.0219 2.788113,0.0688 4.181117,-0.0239 0,0 1.483479,-1.09632 1.483479,-1.09632 v 0 c -1.434663,0.13732 -2.873084,0.13661 -4.313594,0.13928 -3.116038,0.0117 -6.231898,-0.0173 -9.34787,-0.0334 -3.826015,-0.0219 -7.65353,-0.0963 -11.478307,0.0413 -3.723055,0.1146 -7.449579,0.2331 -11.171931,0.016 -1.744236,-0.0888 -3.485655,-0.23084 -5.231656,-0.27694 0,0 -1.531226,1.1125 -1.531226,1.1125 z" />
    <path
       style="fill:#ffffff;stroke-width:0.264583"
       id="path1192"
       d="m 70.099713,120.65053 c -0.03337,0.30525 -0.07463,0.64187 -0.08064,0.94361 -0.04148,2.08615 0.05007,4.17985 0.108138,6.26456 0.0609,2.6119 -0.136215,5.2179 -0.31025,7.82147 0,0 1.453465,-0.73157 1.453465,-0.73157 v 0 c 0.0818,-2.59682 0.239646,-5.19186 0.227777,-7.79091 -0.0019,-2.44204 -0.115581,-4.92392 0.295865,-7.34042 0,0 -1.69436,0.83326 -1.69436,0.83326 z" />
    <path
       style="fill:#ececec;stroke-width:0.264583"
       id="path1210"
       d="m 77.749767,27.990538 c 0.244451,4.101518 0.202266,8.214704 0.460343,12.3157 0.125471,1.993831 0.317302,3.982934 0.475951,5.9744 0.573225,8.403701 1.593204,16.779409 1.954302,25.198215 0.204587,4.769853 0.122114,6.788809 0.07355,11.529836 -0.298357,6.904683 -0.500256,13.810927 -0.525523,20.721841 -0.0098,1.53406 -7.94e-4,3.06806 0.0058,4.60209 0,0 2.288233,-1.17354 2.288233,-1.17354 v 0 c -0.0734,-1.49674 -0.152189,-2.9932 -0.218372,-4.49029 -0.243678,-6.803365 -0.194056,-13.610229 -0.0639,-20.416016 0.01762,-4.271158 0.08655,-7.231393 -0.128749,-11.515439 -0.09959,-1.981539 -0.28289,-3.958029 -0.440619,-5.93579 -0.511842,-6.417894 -1.133496,-12.827574 -1.525323,-19.25485 -0.08235,-2.028209 -0.199834,-4.055298 -0.247052,-6.084631 -0.09839,-4.228719 0.08274,-8.457774 0.265658,-12.681275 0,0 -2.374268,1.209749 -2.374268,1.209749 z" />
    <path
       style="fill:#ececec;stroke-width:0.264583"
       id="path1212"
       d="m 81.112425,106.01312 c 3.287961,-0.31378 6.600259,-0.28674 9.899687,-0.26398 3.543361,0.0621 7.091566,0.25747 10.569678,0.96243 0,0 2.01657,-1.40988 2.01657,-1.40988 v 0 c -3.55479,-0.58924 -7.159348,-0.74325 -10.75585,-0.87943 -3.198191,-0.0464 -6.396363,-0.11176 -9.594236,-0.002 0,0 -2.135849,1.59274 -2.135849,1.59274 z" />
    <path
       style="fill:#ececec;stroke-width:0.264583"
       id="path1224"
       d="m 98.373593,29.711367 c 0.0099,0.234873 0.01243,0.470183 0.02983,0.704619 0.162788,2.191692 0.397045,4.378577 0.553562,6.570877 0.07961,1.115131 0.518787,8.493792 0.55527,9.101553 0.890025,14.780125 1.553395,29.572934 2.096765,44.369629 0.18093,5.095936 0.31964,10.193545 0.34045,15.292805 0,0 2.16631,-1.11407 2.16631,-1.11407 v 0 c -0.35941,-4.973042 -0.72448,-9.945671 -1.07154,-14.919605 -0.48406,-6.975599 -0.9644,-13.951823 -1.29764,-20.936722 -0.36138,-7.574397 -0.37933,-9.283253 -0.53913,-16.83063 -0.0471,-2.223064 -0.0838,-4.446333 -0.12571,-6.669503 -0.5085,-20.287033 0.18254,7.44928 -0.22257,-9.275749 -0.042,-1.734124 -0.1255,-3.467132 -0.16127,-5.201393 -0.0231,-1.118537 -0.004,-1.362724 0.0339,-2.293406 0,0 -2.358271,1.201595 -2.358271,1.201595 z" />
    <path
       style="fill:#ececec;stroke-width:0.264583"
       id="path1226"
       d="m 80.288671,26.824178 c 0.483817,-0.01095 0.583846,-0.02106 1.108369,0.0069 2.167485,0.115739 -0.684022,0.0068 1.966047,0.139104 1.556319,0.07769 2.43145,0.0726 4.079994,0.09682 4.65219,-0.01421 9.304049,0.108548 13.933639,0.577673 0,0 1.90019,-1.355585 1.90019,-1.355585 v 0 c -4.656294,-0.339255 -9.323176,-0.405872 -13.988331,-0.554151 -1.945735,-0.09436 -3.84797,-0.231249 -5.783186,-0.419127 -0.548507,-0.05325 -0.567436,-0.04605 -1.060931,-0.05795 0,0 -2.155791,1.566275 -2.155791,1.566275 z" />
    <path
       style="fill:#ececec;stroke-width:0.264583"
       id="path1230"
       d="m 82.082888,76.470189 c 2.026327,-0.09376 4.049403,0.02585 6.072325,0.135101 3.187808,0.268246 6.407028,0.371639 9.539004,1.064589 0.866801,0.208753 1.719524,0.460247 2.562083,0.74989 0,0 2.13166,-1.447115 2.13166,-1.447115 v 0 c -0.87104,-0.276818 -1.75185,-0.512374 -2.640695,-0.72644 -0.381183,-0.0862 -0.758598,-0.191196 -1.143551,-0.258604 -0.688406,-0.120547 -2.074248,-0.240736 -2.725377,-0.294344 -1.931062,-0.158982 -3.865444,-0.280053 -5.79401,-0.469963 -1.940579,-0.155665 -3.883189,-0.314619 -5.831115,-0.329949 0,0 -2.170324,1.576835 -2.170324,1.576835 z" />
    <path
       style="fill:#ececec;stroke-width:0.264583"
       id="path1232"
       d="m 79.982541,52.866975 c 2.435738,0.07897 4.870574,0.179202 7.30668,0.247568 3.171433,0.04233 6.333754,0.164285 9.485765,0.522044 1.033706,0.162946 2.054267,0.387747 3.094487,0.50814 0,0 2.152887,-1.530945 2.152887,-1.530945 v 0 c -1.07004,-0.0947 -2.121219,-0.307176 -3.185963,-0.444358 -3.208163,-0.266485 -6.421811,-0.368403 -9.640059,-0.429926 -2.352654,-0.105434 -4.7091,-0.214249 -7.053162,-0.442315 0,0 -2.160635,1.569792 -2.160635,1.569792 z" />
    <path
       style="fill:#ececec;stroke-width:0.264583"
       id="path1254"
       d="m 80.462376,120.21922 c 0.06776,2.04474 0.08337,4.09075 0.120954,6.13622 0.210151,6.22028 0.934603,12.4093 1.474028,18.60671 0.333354,4.13977 0.566423,8.28989 0.597337,12.44362 0,0 2.26174,-1.16598 2.26174,-1.16598 v 0 c -0.364321,-4.0797 -0.624327,-8.16823 -0.997376,-12.24727 -0.573262,-6.22521 -1.323642,-12.46187 -1.20337,-18.72357 0.03763,-2.08656 0.05377,-4.17362 0.120954,-6.25948 0,0 -2.374267,1.20975 -2.374267,1.20975 z" />
    <path
       style="fill:#ececec;stroke-width:0.264583"
       id="path1256"
       d="m 84.638816,156.46764 c 3.894582,-0.46284 7.81432,0.0398 11.683812,0.49491 1.826487,0.23728 3.652829,0.48779 5.452612,0.88324 0,0 2.11327,-1.47799 2.11327,-1.47799 v 0 c -1.90512,-0.28143 -3.82067,-0.48281 -5.73336,-0.70482 -3.777191,-0.42562 -7.570136,-0.93858 -11.380486,-0.78808 0,0 -2.135848,1.59274 -2.135848,1.59274 z" />
    <path
       style="fill:#ececec;stroke-width:0.264583"
       id="path1258"
       d="m 101.57329,120.95094 c -0.0961,2.12249 -0.009,4.24571 -0.0834,6.36973 -0.0353,1.01274 -0.0976,2.02435 -0.14644,3.03653 -0.26486,6.08623 -0.58288,12.16906 -0.72793,18.2597 -0.001,1.6657 -0.10564,3.35159 0.0964,5.01143 0.0519,0.42664 0.16479,0.97492 0.24759,1.40286 0.14755,0.67816 0.2762,1.35935 0.34969,2.04959 0,0 2.35011,-1.23341 2.35011,-1.23341 v 0 c -0.0937,-0.68878 -0.24579,-1.36588 -0.41403,-2.04015 -0.45227,-2.05283 -0.55026,-4.14973 -0.5492,-6.2488 -0.0718,-6.06049 0.0874,-12.12052 0.56648,-18.16446 0.13853,-1.90012 0.29935,-3.79867 0.42225,-5.69986 0.0844,-1.30529 0.0748,-2.6249 0.29277,-3.91858 0,0 -2.40424,1.17542 -2.40424,1.17542 z" />
    <path
       style="fill:#ececec;stroke-width:0.264583"
       id="path1262"
       d="m 82.625411,119.87192 c 2.433618,-0.0789 4.868079,-0.0902 7.302034,-0.0329 3.62187,0.19705 7.252451,0.3369 10.850925,0.81044 0.96329,0.12683 1.91126,0.28407 2.83772,0.57395 0,0 2.13386,-1.45885 2.13386,-1.45885 v 0 c -0.98098,-0.27241 -1.97882,-0.39746 -2.99048,-0.51705 -3.624427,-0.43213 -7.274582,-0.58267 -10.91723,-0.78973 -2.348315,-0.10533 -4.697069,-0.0934 -7.046505,-0.16269 0,0 -2.170324,1.57683 -2.170324,1.57683 z" />
    <path
       style="fill:#ececec;stroke-width:0.264583"
       id="path1264"
       d="m 83.307411,136.68305 c 3.715097,-0.12097 7.433749,-0.0196 11.149065,0.0475 2.577696,0.04 5.155285,0.0855 7.732724,0.13914 0,0 1.9699,-1.42864 1.9699,-1.42864 v 0 c -2.62145,0.009 -5.242947,0.002 -7.864127,-0.0415 -3.613303,-0.0569 -7.225053,-0.1564 -10.836616,-0.27927 0,0 -2.150946,1.56275 -2.150946,1.56275 z" />
    <path
       style="fill:#cccccc;stroke-width:0.264583"
       id="path1270"
       d="m 107.81631,29.027456 c -0.32448,1.921007 -0.0586,3.841482 0.0649,5.766681 0.10854,1.691896 0.22933,3.383536 0.29113,5.077782 0.0756,2.073156 0.0807,4.148283 0.12103,6.222424 0.35613,16.478845 0.96367,32.949382 1.66977,49.416411 0.25293,5.748106 0.13629,3.092058 0.35012,7.968146 0,0 1.86958,-0.9708 1.86958,-0.9708 v 0 c -0.52663,-4.720678 -0.25419,-2.14382 -0.79946,-7.732449 -0.45455,-5.325099 -0.70372,-7.883646 -1.03113,-13.436031 -0.70573,-11.968398 -0.94372,-23.965691 -0.6732,-35.952202 0.16949,-18.578255 -0.0538,4.554408 0.13633,-11.587162 0.0239,-2.029024 -0.0604,-2.734167 0.13934,-4.503314 0.0354,-0.313643 0.18377,-1.063578 0.25777,-1.44788 0,0 -2.39619,1.178394 -2.39619,1.178394 z" />
    <path
       style="fill:#cccccc;stroke-width:0.264583"
       id="path1276"
       d="m 110.52584,106.34342 c 3.60858,0.38635 7.20898,0.84164 10.81899,1.21733 1.96056,0.1859 3.91433,0.41901 5.82804,0.88913 0,0 2.0736,-1.43701 2.0736,-1.43701 v 0 c -1.97779,-0.41349 -3.98515,-0.62326 -5.99636,-0.8069 -3.53295,-0.35587 -7.06738,-0.74724 -10.56333,-1.37868 0,0 -2.16094,1.51613 -2.16094,1.51613 z" />
    <path
       style="fill:#cccccc;stroke-width:0.264583"
       id="path1286"
       d="m 129.03926,104.21475 c 0.48278,-3.27386 0.49183,-6.59554 0.5633,-9.897021 0.13264,-5.355603 -0.27261,-10.698824 -0.65882,-16.035165 -0.44578,-6.159387 -0.33279,-4.600837 -0.77004,-10.932557 -0.65207,-8.442942 -1.3484,-16.882748 -1.806,-25.339029 -0.0807,-2.282204 -0.27133,-4.568124 -0.0969,-6.849512 0.29032,-1.242677 0.63353,-2.472106 0.92805,-3.714152 0,0 -2.32444,1.118817 -2.32444,1.118817 v 0 c -0.28175,1.260782 -0.65775,2.496507 -0.92278,3.759866 -0.0931,2.248723 0.21645,4.488686 0.41367,6.724669 0.83401,8.349329 1.79306,16.689043 2.32905,25.06504 0.86471,14.749211 -0.16579,-3.080888 0.60413,11.018858 0.29393,5.382707 0.64222,10.771428 0.36065,16.164695 -0.15203,3.072572 -0.22061,6.468651 -0.88203,9.489921 -0.0417,0.19035 -0.1059,0.37506 -0.15884,0.56258 0,0 2.42103,-1.13701 2.42103,-1.13701 z" />
    <path
       style="fill:#cccccc;stroke-width:0.264583"
       id="path1288"
       d="m 110.15379,28.199125 c 0.19476,0.01992 0.3903,0.03328 0.58428,0.05978 0.63081,0.08617 1.25557,0.212839 1.88588,0.302578 1.33707,0.190357 2.68221,0.293243 4.02729,0.406852 1.7163,0.144039 3.43669,0.235329 5.15829,0.281123 0.81246,0.008 1.62746,0.05365 2.43577,-0.04505 0.44584,-0.07483 0.89327,-0.134038 1.34373,-0.171646 0,0 2.14393,-1.581414 2.14393,-1.581414 v 0 c -0.45733,0.02802 -0.9134,0.07229 -1.36338,0.161946 -0.8111,0.138835 -1.62599,0.106714 -2.44716,0.105942 -1.75773,-0.0069 -3.51538,-0.05643 -5.26907,-0.180896 -2.12923,-0.165645 -4.24734,-0.399039 -6.33173,-0.877882 0,0 -2.16783,1.538666 -2.16783,1.538667 z" />
    <path
       style="fill:#cccccc;stroke-width:0.264583"
       id="path1290"
       d="m 109.91782,53.884456 c 1.76278,-0.576278 3.58006,-0.961641 5.38697,-1.370047 1.7271,-0.422611 3.47438,-0.749032 5.24382,-0.923792 0.88989,-0.07122 1.78204,-0.134546 2.67103,-0.03319 0.49863,0.06191 0.24458,0.0323 0.76221,0.08841 0,0 2.1522,-1.528755 2.1522,-1.528755 v 0 c -0.511,-0.05436 -0.25932,-0.02468 -0.75508,-0.0886 -0.91829,-0.120221 -1.83382,-0.07456 -2.75457,0.02201 -1.79421,0.183157 -3.56599,0.510119 -5.31769,0.941382 -1.7715,0.387871 -3.54137,0.787275 -5.29163,1.263237 0,0 -2.09726,1.629352 -2.09726,1.629352 z" />
    <path
       style="fill:#cccccc;stroke-width:0.264583"
       id="path1292"
       d="m 108.73619,77.00919 c 0.19964,-0.0062 0.39977,-0.0035 0.59894,-0.01876 1.63902,-0.125312 3.27033,-0.362516 4.9034,-0.543623 1.95108,-0.216377 2.20549,-0.229434 4.14155,-0.403948 2.24805,-0.222287 4.50803,-0.266633 6.76458,-0.202226 0.52589,0.02532 1.05274,0.0231 1.5764,0.07918 0,0 2.16567,-1.532099 2.16567,-1.532099 v 0 c -0.54274,-0.07873 -1.08953,-0.06103 -1.63725,-0.07117 -2.33526,-0.0094 -4.6706,0.08711 -6.99354,0.337264 -2.1886,0.200729 -1.92946,0.172842 -4.13203,0.39157 -1.55377,0.1543 -3.11704,0.366755 -4.6798,0.412793 -0.18246,0.0054 -0.36486,-0.01252 -0.54729,-0.01876 0,0 -2.16063,1.569794 -2.16063,1.569794 z" />
    <path
       style="fill:#cccccc;stroke-width:0.264583"
       id="path1296"
       d="m 109.71514,121.25614 c -0.0214,0.13266 -0.054,0.264 -0.0642,0.39799 -0.12958,1.70983 -0.0546,3.4549 -0.0334,5.16434 0.0616,4.95432 0.0385,1.53473 0.0541,6.9163 0.0345,4.77458 -0.20642,9.54916 0.003,14.32188 0.0749,1.70374 0.21066,3.33383 0.33957,5.02987 0.0915,1.40166 0.31223,2.78622 0.57757,4.1632 0,0 2.23247,-1.20192 2.23247,-1.20192 v 0 c -0.35658,-1.32064 -0.64208,-2.65594 -0.77729,-4.02075 -0.21097,-1.92961 -0.34262,-2.95413 -0.47034,-4.94871 -0.304,-4.74789 -0.14468,-9.50756 -0.1022,-14.2604 0.0728,-3.75882 0.004,-7.58907 0.40426,-11.33172 0.0782,-0.73197 0.10957,-0.8327 0.23229,-1.40848 0,0 -2.39619,1.1784 -2.39619,1.1784 z" />
    <path
       style="fill:#cccccc;stroke-width:0.264583"
       id="path1298"
       d="m 112.01515,156.93997 c 3.97151,-0.87422 7.99068,-1.45989 12.03028,-1.90401 2.54099,-0.22923 1.33204,-0.14388 3.62587,-0.26945 0,0 1.93783,-1.42701 1.93783,-1.42701 v 0 c -2.36644,0.17386 -1.12446,0.0674 -3.72509,0.32896 -3.94323,0.45208 -7.86629,1.02548 -11.77927,1.68936 0,0 -2.08962,1.58215 -2.08962,1.58215 z" />
    <path
       style="fill:#cccccc;stroke-width:0.264583"
       id="path1300"
       d="m 111.14267,120.9552 c 2.72778,0.31619 5.46194,0.54144 8.20538,0.67275 2.20591,0.043 1.14417,0.0353 3.18515,0.0288 0,0 1.97083,-1.436 1.97083,-1.436 v 0 c -2.08224,0.0498 -1.00098,0.0371 -3.24385,0.0319 -2.66461,-0.12696 -5.33705,-0.3125 -7.95203,-0.87071 0,0 -2.16548,1.57331 -2.16548,1.57331 z" />
    <path
       style="fill:#cccccc;stroke-width:0.264583"
       id="path1308"
       d="m 128.99439,151.361 c 0.31268,-2.57779 0.23314,-5.18039 0.11692,-7.76741 -0.24168,-4.8816 -0.70525,-9.7442 -1.24544,-14.60035 -0.25377,-1.93353 -0.42955,-3.87149 -0.37072,-5.82175 0.007,-0.61802 0.0653,-1.22584 0.15774,-1.83563 0,0 -2.37517,1.16575 -2.37517,1.16575 v 0 c -0.0924,0.61586 -0.13042,1.23309 -0.11655,1.85643 0.0234,1.92772 0.32303,3.82736 0.62323,5.72888 0.68211,4.82856 1.16273,9.68184 1.27342,14.56072 0.0396,2.63284 0.055,5.29689 -0.45962,7.89175 0,0 2.39619,-1.17839 2.39619,-1.17839 z" />
    <path
       style="fill:#cccccc;stroke-width:0.264583"
       id="path1310"
       d="m 109.57534,136.97495 c 2.8511,0.12597 5.69579,-0.29554 8.52674,-0.58067 2.72234,-0.26803 5.45625,-0.37121 8.18382,-0.56855 0,0 2.01245,-1.48871 2.01245,-1.48871 v 0 c -2.7617,0.27437 -5.53173,0.42604 -8.29783,0.64917 -2.73469,0.26525 -5.50088,0.68734 -8.25039,0.44963 0,0 -2.17479,1.53913 -2.17479,1.53913 z" />
    <path
       style="fill:#999999;stroke-width:0.264583"
       id="path1312"
       d="m 133.7892,26.842283 c 4.86905,0.173186 9.7445,0.104905 14.61642,0.143605 2.61658,0.03368 5.23326,0.01331 7.8492,0.08173 0,0 1.96007,-1.418803 1.96007,-1.418803 v 0 c -2.67754,-0.02492 -5.35465,0.0244 -8.03214,0.04627 -4.74204,0.02487 -9.51153,0.118974 -14.23226,-0.390392 0,0 -2.16129,1.537593 -2.16129,1.537593 z" />
    <path
       style="fill:#999999;stroke-width:0.264583"
       id="path1318"
       d="m 136.54095,104.86509 c -0.0813,-2.76328 -0.2967,-5.523154 -0.28839,-8.289071 0.003,-1.031391 0.0478,-2.062234 0.0718,-3.093352 0.2787,-7.647392 0.53471,-15.296578 0.59716,-22.949096 0.0436,-6.194644 0.006,-12.389561 0.0232,-18.584431 0.0468,-3.630504 -0.0951,-7.259476 -0.1652,-10.888712 0.0196,-2.025293 -0.15528,-4.047765 -0.16969,-6.07204 -0.008,-1.111755 0.0406,-1.588198 0.10875,-2.705068 0.2295,-2.612776 0.31818,-5.237519 0.54855,-7.849589 0.0318,-0.261807 0.0636,-0.523614 0.0953,-0.785421 0,0 -2.2994,1.144392 -2.2994,1.144392 v 0 c -0.0173,0.256685 -0.0346,0.51337 -0.0519,0.770055 -0.14715,2.608311 -0.24721,5.219817 -0.48824,7.822238 -0.0739,1.17262 -0.12323,1.56418 -0.10128,2.729304 0.038,2.015572 0.24585,4.028466 0.20959,6.046549 0.0849,3.605866 0.24826,7.209198 0.30029,10.815757 0.0992,6.152586 0.19032,12.305141 0.21705,18.458568 -0.0591,7.675737 -0.28827,15.348067 -0.73214,23.011818 -0.0438,1.044255 -0.1031,2.087975 -0.1314,3.132767 -0.0766,2.829332 0.0389,5.662002 -0.10761,8.489652 0,0 2.3636,-1.20432 2.3636,-1.20432 z" />
    <path
       style="fill:#999999;stroke-width:0.264583"
       id="path1322"
       d="m 153.41189,103.38176 c 0.001,-0.83555 0.12111,-1.67045 0.12203,-2.5053 8e-4,-0.66161 -0.0378,-1.322685 -0.0586,-1.983966 -0.18428,-5.846662 10e-4,0.480666 -0.19401,-6.370834 -0.13973,-6.791634 0.0104,-13.58488 0.0312,-20.376951 0.0142,-4.623842 -0.0185,-5.999445 -0.0723,-10.564405 -0.14287,-7.076268 -0.58906,-14.143159 -0.69255,-21.220059 1.6e-4,-3.457276 0.1613,-6.909215 0.52463,-10.346759 0.0968,-0.951063 0.15878,-1.909849 0.43112,-2.8302 0,0 -2.38382,1.13874 -2.38382,1.13874 v 0 c -0.21196,0.925883 -0.24927,1.873308 -0.30682,2.818929 -0.21228,3.406172 -0.29628,6.818037 -0.23974,10.231012 0.21329,7.012413 0.83671,14.002178 1.09433,21.013009 0.0999,4.721014 0.15016,5.734135 0.13146,10.529054 -0.0267,6.847242 -0.22122,13.694055 -0.34225,20.539861 -0.0233,3.698314 0.0954,7.433999 -0.44898,11.103289 0,0 2.40424,-1.17542 2.40424,-1.17542 z" />
    <path
       style="fill:#999999;stroke-width:0.264583"
       id="path1324"
       d="m 134.12769,108.61669 c 3.35973,-0.8436 6.82082,-1.10273 10.26962,-1.25568 1.97165,-0.10657 3.94002,-0.058 5.90268,0.1419 0.40043,0.0413 0.80159,0.0741 1.20299,0.10425 0,0 2.15105,-1.54181 2.15105,-1.54181 v 0 c -0.40848,-0.0219 -0.81683,-0.0463 -1.22445,-0.0812 -2.03643,-0.15287 -4.07602,-0.16343 -6.11515,-0.0303 -3.38745,0.18066 -6.79076,0.3986 -10.11837,1.09356 0,0 -2.06837,1.56934 -2.06837,1.56934 z" />
    <path
       style="fill:#999999;stroke-width:0.264583"
       id="path1326"
       d="m 136.22345,50.734832 c 2.62454,0.381733 5.20907,0.981835 7.7934,1.567842 2.01897,0.515715 4.0881,0.812178 6.17171,0.691113 0.18281,-0.02164 0.36562,-0.04328 0.54844,-0.06492 0,0 2.08941,-1.563187 2.08941,-1.563187 v 0 c -0.1862,0.03034 -0.37241,0.06068 -0.55861,0.09102 -2.103,0.225475 -4.20813,-0.05973 -6.26109,-0.533701 -2.53704,-0.563087 -5.06797,-1.153126 -7.60777,-1.70406 0,0 -2.17549,1.51589 -2.17549,1.51589 z" />
    <path
       style="fill:#999999;stroke-width:0.264583"
       id="path1328"
       d="m 135.73049,77.00215 c 0.2141,-0.0048 0.42871,0.0011 0.6423,-0.01439 0.99446,-0.07235 1.66838,-0.196948 2.69609,-0.36745 2.35606,-0.390885 4.70094,-0.84458 7.05017,-1.273932 2.74915,-0.423722 5.4892,-1.034119 8.27059,-1.218883 -0.24457,0.0569 0.43758,-0.05648 0.42406,0.0872 -0.003,0.03352 -0.0599,0.03073 -0.0899,0.0461 0,0 2.40758,-1.183227 2.40758,-1.183227 v 0 c -0.0731,-0.467014 -0.16296,-0.487837 -0.6521,-0.493665 -2.87911,0.261987 -5.7075,0.959802 -8.55968,1.40371 -2.30087,0.42378 -4.59895,0.848047 -6.91489,1.182584 -0.74917,0.108214 -1.74042,0.256307 -2.53031,0.290658 -0.20075,0.0087 -0.40177,-0.0096 -0.60265,-0.01439 0,0 -2.14126,1.555713 -2.14126,1.555713 z" />
    <path
       style="fill:#999999;stroke-width:0.264583"
       id="path1338"
       d="m 136.81755,152.66917 c -0.0769,-2.46804 -0.10141,-4.93562 -0.21761,-7.40249 -0.18685,-4.47887 -0.54062,-8.94785 -0.77019,-13.42444 -0.2234,-2.59246 0.0109,-5.16501 0.45737,-7.71679 0.22556,-1.31959 0.70147,-2.57366 1.03512,-3.86566 0,0 -2.35862,1.12803 -2.35862,1.12803 v 0 c -0.32741,1.28264 -0.76912,2.53857 -0.95783,3.85435 -0.37762,2.54761 -0.55757,5.10361 -0.25763,7.67527 0.26699,4.47017 0.70656,8.93141 0.78294,13.41144 0.0378,2.51704 0.003,5.03418 -0.0878,7.55004 0,0 2.37427,-1.20975 2.37427,-1.20975 z" />
    <path
       style="fill:#999999;stroke-width:0.264583"
       id="path1340"
       d="m 133.8786,120.42515 c 2.15482,0.24686 4.32328,0.38927 6.48673,0.54959 2.2501,0.19999 4.49543,0.4408 6.74746,0.62165 1.17913,0.0602 2.3626,0.18737 3.54435,0.14041 1.22389,-0.25298 2.09478,-1.01595 3.23098,-1.67145 0,0 -2.47553,0.96024 -2.47553,0.96024 v 0 c 3.72875,-2.1042 2.25856,-1.18513 1.36865,-0.85556 -1.19541,0.12562 -2.40761,-0.0322 -3.60509,-0.0508 -2.27044,-0.13667 -4.52834,-0.39016 -6.79343,-0.58946 -2.10571,-0.12968 -4.22709,-0.25598 -6.30358,-0.63798 0,0 -2.20054,1.53335 -2.20054,1.53335 z" />
    <path
       style="fill:#999999;stroke-width:0.264583"
       id="path1342"
       d="m 150.73494,122.03331 c 0.10802,2.80474 0.11331,5.61202 0.0959,8.41835 -0.0482,2.37649 -0.0413,4.75324 -0.0379,7.13002 0.0107,1.95198 -0.0166,3.90389 -0.0346,5.85575 -0.0131,1.09059 -0.0151,2.18129 -0.0249,3.27192 -0.0567,1.14246 -0.15033,2.28252 -0.22117,3.42409 -0.0534,0.84307 -0.0504,1.68817 -0.0509,2.53252 7.9e-4,0.5986 0.001,1.1972 -8e-4,1.7958 0,0 2.34563,-1.19536 2.34563,-1.19536 v 0 c -0.003,-0.59801 -0.004,-1.19605 -1.3e-4,-1.79405 0.006,-0.83935 0.0156,-1.67873 0.0497,-2.51749 0.0498,-1.14855 0.13208,-2.29464 0.22302,-3.44055 -0.01,-1.08216 -0.0118,-2.16437 -0.0249,-3.24649 -0.0181,-1.94011 -0.0454,-3.88027 -0.0346,-5.82051 0.003,-2.36389 0.0105,-4.72775 -0.0379,-7.09136 -0.0177,-2.83892 -0.0102,-5.67868 0.0959,-8.51608 0,0 -2.34226,1.19344 -2.34226,1.19344 z" />
    <path
       style="fill:#999999;stroke-width:0.264583"
       id="path1344"
       d="m 152.28512,154.32939 c -1.56208,-0.45882 -3.17852,-0.66355 -4.79368,-0.82377 -1.78185,-0.15144 -3.54598,-0.44869 -5.32809,-0.59901 -1.04776,-0.0839 -2.09787,-0.13225 -3.14866,-0.15289 -0.42821,-0.005 -0.21811,-0.003 -0.6303,-0.006 0,0 -2.14912,1.56131 -2.14912,1.56131 v 0 c 0.41674,-0.002 0.20414,-0.001 0.63779,-0.003 1.06779,5.3e-4 2.13593,0.0192 3.20158,0.0921 1.78888,0.13907 3.56317,0.39553 5.34727,0.58067 1.56419,0.14514 3.12961,0.33222 4.63068,0.81915 0,0 2.23253,-1.46893 2.23253,-1.46893 z" />
    <path
       style="fill:#999999;stroke-width:0.264583"
       id="path1346"
       d="m 135.01362,135.87455 c 2.16612,0.0777 4.3337,0.0949 6.49933,0.18613 2.56445,0.13348 5.13155,0.20209 7.6981,0.2799 0,0 2.04431,-1.47911 2.04431,-1.47911 v 0 c -2.58406,-0.0245 -5.167,-0.0997 -7.74767,-0.23727 -2.10968,-0.0887 -4.2284,-0.0859 -6.32859,-0.32296 0,0 -2.16548,1.57331 -2.16548,1.57331 z" />
    <text
       xml:space="preserve"
       id="text1352"
       style="font-size:5.64444px;line-height:1.25;font-family:monospace;-inkscape-font-specification:monospace;white-space:pre;shape-inside:url(#rect1354);" />
    <text
       xml:space="preserve"
       id="text1362"
       style="font-size:5.64444px;line-height:1.25;font-family:Arial;-inkscape-font-specification:Arial;white-space:pre;shape-inside:url(#rect1364);fill:#ffffff;"
       transform="translate(12.659485,-2.8771556)"><tspan
         x="29.347656"
         y="17.168239"><tspan
           style="fill:#ffffff">App</tspan></tspan></text>
    <text
       xml:space="preserve"
       id="text1362-5"
       style="font-size:5.64444px;line-height:1.25;font-family:Arial;-inkscape-font-specification:Arial;white-space:pre;shape-inside:url(#rect1364-9);fill:#ffffff;"
       transform="translate(51.103525,-1.8215791)"><tspan
         x="29.347656"
         y="17.168239"><tspan
           style="fill:#ffffff">Module</tspan></tspan></text>
    <text
       xml:space="preserve"
       id="text1362-5-1"
       style="font-size:5.64444px;line-height:1.25;font-family:Arial;-inkscape-font-specification:Arial;white-space:pre;shape-inside:url(#rect1364-9-8);fill:#ffffff;"
       transform="translate(79.65074,-1.8215791)"><tspan
         x="29.347656"
         y="17.168239"><tspan
           style="fill:#ffffff">Module</tspan></tspan></text>
    <text
       xml:space="preserve"
       id="text1362-5-1-4"
       style="font-size:5.64444px;line-height:1.25;font-family:Arial;-inkscape-font-specification:Arial;white-space:pre;shape-inside:url(#rect1364-9-8-8);fill:#ffffff;"
       transform="translate(106.50419,-1.8215791)"><tspan
         x="29.347656"
         y="17.168239"><tspan
           style="fill:#ffffff">Module</tspan></tspan></text>
    <path
       style="fill:#666666;stroke-width:0.264583"
       id="path1482"
       d="m 160.91495,29.158779 c -0.0893,3.430355 -0.0855,6.861342 -0.18326,10.291519 -0.30887,6.979565 -1.16302,13.91635 -1.77476,20.871762 -0.58596,6.140283 -0.6011,12.30831 -0.60929,18.469758 -0.003,4.074422 0.21094,8.144864 0.299,12.218106 0.0324,1.834888 0.30318,3.639513 0.72898,5.419452 0.36151,1.06639 0.62574,2.155256 0.76015,3.272581 0.10708,1.171873 0.10145,2.350003 0.0965,3.525573 -0.001,0.17084 -0.003,0.34168 -0.004,0.51252 0,0 3.33407,-1.69866 3.33407,-1.69866 v 0 c -0.001,-0.17003 -0.002,-0.34006 -0.003,-0.51008 -0.0116,-1.19014 -0.009,-2.383107 -0.11072,-3.569663 -0.14733,-1.126577 -0.44697,-2.219378 -0.80761,-3.296036 -0.43625,-1.736794 -0.72811,-3.494307 -0.82361,-5.286589 -0.22621,-4.034938 -0.43211,-8.072004 -0.47838,-12.113808 -0.0925,-6.127543 -0.097,-12.262204 0.48141,-18.37037 0.62033,-6.983708 1.34683,-13.957601 1.89411,-20.94775 0.20606,-3.483919 0.17837,-6.986503 0.58944,-10.454817 0,0 -3.38872,1.666502 -3.38872,1.666502 z" />
    <path
       style="fill:#666666;stroke-width:0.264583"
       id="path1486"
       d="m 162.11722,30.270167 c 3.19789,-0.09881 6.39744,-0.09112 9.59598,-0.155681 2.34312,-0.156636 4.76326,-0.145021 7.0565,-0.728591 1.27972,0.05405 0.21773,0.02326 2.89826,-2.314107 0.10265,-0.08951 -0.25417,0.10069 -0.37192,0.169119 -2.62043,1.522823 -3.18615,1.375815 -4.38586,3.18911 -1.39155,2.851584 -1.69655,6.051606 -2.01822,9.163928 -0.39845,3.942165 -0.33486,7.907161 -0.38855,11.863054 -0.13633,4.88164 -0.22646,9.764747 -0.28623,14.647918 -0.0204,5.703763 0.1063,11.409556 0.28083,17.110702 0.27355,4.409602 0.85992,8.80091 1.65705,13.145378 0.5938,2.704309 1.15597,5.413023 1.52104,8.158663 0.0443,0.69206 0.19,1.39098 0.16982,2.08767 -0.003,0.10519 0.0274,0.24062 -0.0502,0.3117 -0.0574,0.0526 -0.29036,-0.0145 -0.22614,-0.0586 0.96848,-0.6641 2.00097,-1.22966 3.00145,-1.84448 -2.18858,-0.80826 -4.43251,-1.44686 -6.68438,-2.05082 -1.72815,-0.52297 -3.48744,-0.73544 -5.28469,-0.6836 0,0 -2.99367,2.19533 -2.99367,2.19533 v 0 c 1.80388,-0.10754 3.57158,0.0312 5.32167,0.52414 2.22405,0.55432 4.46887,1.14703 6.53493,2.15994 1.21597,-0.5622 2.46032,-1.06672 3.64793,-1.6866 0.0752,-0.0392 0.0509,-0.16323 0.058,-0.24775 0.068,-0.80232 -0.23503,-1.62114 -0.26012,-2.41723 -0.4684,-2.71802 -1.06573,-5.411335 -1.6479,-8.106733 -0.85864,-4.293314 -1.53781,-8.629946 -1.81574,-13.003204 -0.24141,-5.709621 -0.31356,-11.423224 -0.19482,-17.137107 0.0391,-4.881642 0.11164,-9.762398 0.28354,-14.641481 0.13122,-3.957188 0.11233,-7.922924 0.46546,-11.869788 0.34167,-3.107917 0.70136,-6.340922 2.30759,-9.092715 0.14764,-0.187121 0.28146,-0.386027 0.44292,-0.561369 0.13217,-0.143542 0.60906,-0.479788 0.43485,-0.391891 -0.96549,0.487135 -1.87875,1.071613 -2.82383,1.597242 -0.10425,0.05798 0.20572,-0.121827 0.30072,-0.193958 3.08621,-2.343332 4.00221,-3.432152 3.08237,-2.349037 -0.61071,0.289338 -1.28184,0.403003 -1.94573,0.513123 -1.76274,0.29238 -3.54559,0.472347 -5.33143,0.53163 -3.09415,0.06079 -6.18893,0.04047 -9.2822,-0.06391 0,0 -3.0693,2.22998 -3.0693,2.22998 z" />
    <path
       style="fill:#666666;stroke-width:0.264583"
       id="path1488"
       d="m 161.39929,52.51768 c 3.07738,-0.05298 6.15014,0.411064 9.19932,0.772636 0,0 2.61779,-1.85179 2.61779,-1.85179 v 0 c -2.67727,-0.364101 -5.35764,-0.817769 -8.04272,-1.120256 -0.23597,-0.02658 -0.47462,-0.01707 -0.71193,-0.02558 0,0 -3.06246,2.225 -3.06246,2.225 z" />
    <path
       style="fill:#666666;stroke-width:0.264583"
       id="path1490"
       d="m 159.33438,72.869141 c 3.80797,0.06135 7.6086,0.32943 11.40896,0.560586 0,0 2.71393,-1.947503 2.71393,-1.947503 v 0 c -3.69543,-0.210494 -7.38713,-0.469871 -11.07518,-0.785431 0,0 -3.04771,2.172348 -3.04771,2.172348 z" />
    <path
       style="fill:#666666;stroke-width:0.264583"
       id="path1496"
       d="m 161.29288,122.33063 c -0.69884,3.92225 -0.67667,7.93361 -0.82636,11.9042 0.035,3.24026 -0.43378,6.44358 -0.72675,9.66028 -0.23435,2.67622 0.35362,5.31667 0.96497,7.90403 0.18365,0.72936 0.3361,1.4653 0.47479,2.20424 0,0 3.28047,-1.75696 3.28047,-1.75696 v 0 c -0.16632,-0.73106 -0.34666,-1.45844 -0.55355,-2.17931 -0.67926,-2.54204 -1.24942,-5.13959 -0.92393,-7.78827 0.27501,-3.18069 0.54862,-6.36265 0.48272,-9.56009 0.10114,-4.03373 0.14901,-8.13293 1.22774,-12.05042 0,0 -3.4001,1.6623 -3.4001,1.6623 z" />
    <path
       style="fill:#666666;stroke-width:0.264583"
       id="path1498"
       d="m 161.1284,123.45536 c 2.33011,-0.3865 4.67952,-0.0792 7.00204,0.19081 2.34476,0.29844 4.70394,0.47614 7.04539,0.79811 0,0 2.964,-2.09648 2.964,-2.09648 v 0 c -2.35573,-0.27851 -4.72801,-0.41351 -7.07375,-0.78209 -2.29166,-0.27618 -4.6067,-0.57118 -6.91713,-0.36282 0,0 -3.02055,2.25247 -3.02055,2.25247 z" />
    <path
       style="fill:#666666;stroke-width:0.264583"
       id="path1500"
       d="m 162.11722,152.26156 c 3.23744,-0.13173 6.46642,0.24186 9.67951,0.58851 1.58588,0.23769 3.18828,0.26145 4.78781,0.26675 0,0 2.9511,-2.14752 2.9511,-2.14752 v 0 c -1.62466,0.0297 -3.25346,0.0372 -4.86986,-0.16062 -3.15692,-0.2873 -6.31221,-0.62579 -9.47926,-0.7771 0,0 -3.0693,2.22998 -3.0693,2.22998 z" />
    <path
       style="fill:#666666;stroke-width:0.264583"
       id="path1502"
       d="m 174.07171,124.26588 c 0.48815,2.9264 0.19851,5.89908 -0.0686,8.83102 -0.29788,3.61702 -1.20153,7.13536 -1.79522,10.70572 -0.17045,1.36364 -0.28324,2.74245 0.10399,4.08178 0.13293,0.45977 0.45434,1.19057 0.64241,1.63792 0.4937,1.12591 1.03397,2.23003 1.5419,3.34914 0,0 3.23336,-1.82683 3.23336,-1.82683 v 0 c -0.51583,-1.11088 -1.07092,-2.20306 -1.56419,-3.3249 -0.21827,-0.50502 -0.46819,-1.03806 -0.61684,-1.56981 -0.35993,-1.28759 -0.26416,-2.61581 -0.11611,-3.9269 0.53555,-3.55238 1.3154,-7.06775 1.63691,-10.65185 0.30141,-3.02051 0.61816,-6.05708 0.34737,-9.09366 0,0 -3.34496,1.78837 -3.34496,1.78837 z" />
    <path
       style="fill:#666666;stroke-width:0.264583"
       id="path1504"
       d="m 161.69517,136.89931 c 2.3746,-0.12413 4.74378,0.11669 7.10371,0.34831 0,0 2.92102,-2.08216 2.92102,-2.08216 v 0 c -2.33124,-0.19427 -4.66285,-0.42216 -7.00338,-0.46128 0,0 -3.02135,2.19513 -3.02135,2.19513 z" />
    <text
       xml:space="preserve"
       id="text1362-5-1-4-5"
       style="font-size:5.64444px;line-height:1.25;font-family:Arial;-inkscape-font-specification:Arial;white-space:pre;shape-inside:url(#rect1364-9-8-8-8);fill:#ffffff;"
       transform="translate(132.39859,-1.8215791)"><tspan
         x="29.347656"
         y="17.168239"><tspan
           style="fill:#ffffff">Modules...</tspan></tspan></text>
    <text
       xml:space="preserve"
       id="text1543"
       style="font-size:5.64444px;line-height:1.25;font-family:Arial;-inkscape-font-specification:Arial;white-space:pre;shape-inside:url(#rect1545);" />
    <text
       xml:space="preserve"
       id="text1362-4"
       style="font-size:5.64444px;line-height:1.25;font-family:Arial;-inkscape-font-specification:Arial;white-space:pre;shape-inside:url(#rect1364-1);fill:#ffffff;"
       transform="translate(-23.401752,24.051974)"><tspan
         x="29.347656"
         y="17.168239"><tspan
           style="fill:#ffffff">Views</tspan></tspan></text>
    <text
       xml:space="preserve"
       style="font-size:5.64444px;line-height:1.25;font-family:Arial;-inkscape-font-specification:Arial;stroke-width:0.264583;fill:#ffffff;"
       x="13.226074"
       y="62.433434"
       id="text1587"><tspan
         sodipodi:role="line"
         id="tspan1585"
         x="13.226074"
         y="62.433434"
         style="text-align:center;text-anchor:middle;stroke-width:0.264583;fill:#ffffff;">View</tspan><tspan
         sodipodi:role="line"
         x="13.226074"
         y="69.488983"
         style="text-align:center;text-anchor:middle;stroke-width:0.264583;fill:#ffffff;"
         id="tspan1589">Models</tspan></text>
    <text
       xml:space="preserve"
       style="font-size:5.64444px;line-height:1.25;font-family:Arial;-inkscape-font-specification:Arial;stroke-width:0.264583;fill:#ffffff;"
       x="5.6289558"
       y="91.239662"
       id="text1593"><tspan
         sodipodi:role="line"
         id="tspan1591"
         x="5.6289558"
         y="91.239662"
         style="stroke-width:0.264583;fill:#ffffff;">Model</tspan></text>
    <text
       xml:space="preserve"
       style="font-size:4.23333px;line-height:1.25;font-family:Arial;-inkscape-font-specification:Arial;stroke-width:0.264583;fill:#ffffff;"
       x="49.109192"
       y="81.322311"
       id="text1597"><tspan
         sodipodi:role="line"
         id="tspan1595"
         x="49.109192"
         y="81.322311"
         style="font-size:4.23333px;text-align:center;text-anchor:middle;stroke-width:0.264583;fill:#ffffff;">Authorization</tspan><tspan
         sodipodi:role="line"
         x="49.109192"
         y="86.613976"
         style="font-size:4.23333px;text-align:center;text-anchor:middle;stroke-width:0.264583;fill:#ffffff;"
         id="tspan1599">Prism customization</tspan><tspan
         sodipodi:role="line"
         x="49.109192"
         y="91.90564"
         style="font-size:4.23333px;text-align:center;text-anchor:middle;stroke-width:0.264583;fill:#ffffff;"
         id="tspan1601">Regions</tspan><tspan
         sodipodi:role="line"
         x="49.109192"
         y="97.197296"
         style="font-size:4.23333px;text-align:center;text-anchor:middle;stroke-width:0.264583;fill:#ffffff;"
         id="tspan1603">Others</tspan></text>
    <text
       xml:space="preserve"
       style="font-size:5.64444px;line-height:1.25;font-family:Arial;-inkscape-font-specification:Arial;stroke-width:0.264583;fill:#ffffff;"
       x="4.8489871"
       y="128.43343"
       id="text1593-7"><tspan
         sodipodi:role="line"
         id="tspan1591-8"
         x="4.8489871"
         y="128.43343"
         style="stroke-width:0.264583;fill:#ffffff;">Server</tspan></text>
    <text
       xml:space="preserve"
       style="font-size:3.52778px;line-height:0.95;font-family:Arial;-inkscape-font-specification:Arial;stroke-width:0.264583;fill:#ffffff;"
       x="49.321274"
       y="123.22124"
       id="text1597-3"><tspan
         sodipodi:role="line"
         x="49.321274"
         y="123.22124"
         style="font-size:3.52778px;text-align:center;text-anchor:middle;stroke-width:0.264583;fill:#ffffff;"
         id="tspan1603-1">gRPC-driven</tspan><tspan
         sodipodi:role="line"
         x="49.321274"
         y="126.57263"
         style="font-size:3.52778px;text-align:center;text-anchor:middle;stroke-width:0.264583;fill:#ffffff;"
         id="tspan1671">API Server hosted</tspan><tspan
         sodipodi:role="line"
         x="49.321274"
         y="129.92403"
         style="font-size:3.52778px;text-align:center;text-anchor:middle;stroke-width:0.264583;fill:#ffffff;"
         id="tspan1673">by Kestrel with</tspan><tspan
         sodipodi:role="line"
         x="49.321274"
         y="133.27541"
         style="font-size:3.52778px;text-align:center;text-anchor:middle;stroke-width:0.264583;fill:#ffffff;"
         id="tspan1675">ASP.NET Core</tspan></text>
    <text
       xml:space="preserve"
       style="font-size:5.64444px;line-height:1.25;font-family:Arial;-inkscape-font-specification:Arial;stroke-width:0.264583;fill:#ffffff;"
       x="5.9913807"
       y="148.83209"
       id="text1593-7-8"><tspan
         sodipodi:role="line"
         id="tspan1591-8-8"
         x="5.9913807"
         y="148.83209"
         style="stroke-width:0.264583;fill:#ffffff;">Client</tspan></text>
    <text
       xml:space="preserve"
       id="text1701"
       style="font-size:5.64444px;line-height:1.25;font-family:Arial;-inkscape-font-specification:Arial;white-space:pre;shape-inside:url(#rect1703);" />
  </g>
</svg>
